<svg width="30" height="30" viewBox="0 0 30 30" fill="none" xmlns="http://www.w3.org/2000/svg">
<path d="M28.8281 13.8281H21.0938V1.17188C21.0938 0.524648 20.5691 0 19.9219 0H1.17188C0.524648 0 0 0.524648 0 1.17188V24.1406C0 27.3715 2.62846 30 5.85938 30H24.1406C27.414 30 30 27.3513 30 24.1406V15C30 14.3528 29.4754 13.8281 28.8281 13.8281ZM5.85938 27.6562C3.92086 27.6562 2.34375 26.0791 2.34375 24.1406V2.34375H18.75C18.75 2.42947 18.75 23.5495 18.75 24.1406C18.75 25.4099 19.1539 26.6338 19.9184 27.6562H5.85938ZM27.6562 24.1406C27.6562 25.9963 26.2226 27.5248 24.3808 27.648C22.5218 27.5296 21.0938 25.9857 21.0938 24.1406V16.1719H27.6562V24.1406Z" fill="url(#paint0_linear)"/>
<path d="M10.5469 5.03906C8.28527 5.03906 6.44531 7.14188 6.44531 9.72656C6.44531 12.3112 8.28527 14.4141 10.5469 14.4141C12.8085 14.4141 14.6484 12.3112 14.6484 9.72656C14.6484 7.14188 12.8085 5.03906 10.5469 5.03906ZM10.5469 12.0703C9.59402 12.0703 8.78906 10.997 8.78906 9.72656C8.78906 8.45613 9.59402 7.38281 10.5469 7.38281C11.4997 7.38281 12.3047 8.45613 12.3047 9.72656C12.3047 10.997 11.4997 12.0703 10.5469 12.0703Z" fill="url(#paint1_linear)"/>
<path d="M15.2344 22.9688H5.85938C5.21215 22.9688 4.6875 23.4934 4.6875 24.1406C4.6875 24.7879 5.21215 25.3125 5.85938 25.3125H15.2344C15.8816 25.3125 16.4062 24.7879 16.4062 24.1406C16.4062 23.4934 15.8816 22.9688 15.2344 22.9688Z" fill="url(#paint2_linear)"/>
<path d="M15.2344 18.2812H5.85938C5.21215 18.2812 4.6875 18.8059 4.6875 19.4531C4.6875 20.1004 5.21215 20.625 5.85938 20.625H15.2344C15.8816 20.625 16.4062 20.1004 16.4062 19.4531C16.4062 18.8059 15.8816 18.2812 15.2344 18.2812Z" fill="url(#paint3_linear)"/>
<defs>
<linearGradient id="paint0_linear" x1="0" y1="15" x2="30" y2="15" gradientUnits="userSpaceOnUse">
<stop stop-color="#436DFF"/>
<stop offset="1" stop-color="#3141D7"/>
</linearGradient>
<linearGradient id="paint1_linear" x1="6.44531" y1="9.72656" x2="14.6484" y2="9.72656" gradientUnits="userSpaceOnUse">
<stop stop-color="#436DFF"/>
<stop offset="1" stop-color="#3141D7"/>
</linearGradient>
<linearGradient id="paint2_linear" x1="4.6875" y1="24.1406" x2="16.4062" y2="24.1406" gradientUnits="userSpaceOnUse">
<stop stop-color="#436DFF"/>
<stop offset="1" stop-color="#3141D7"/>
</linearGradient>
<linearGradient id="paint3_linear" x1="4.6875" y1="19.4531" x2="16.4062" y2="19.4531" gradientUnits="userSpaceOnUse">
<stop stop-color="#436DFF"/>
<stop offset="1" stop-color="#3141D7"/>
</linearGradient>
</defs>
</svg>
