<svg width="30" height="30" viewBox="0 0 30 30" fill="none" xmlns="http://www.w3.org/2000/svg">
<path d="M26.3755 6.20256L20.5161 0.343184C20.2964 0.123457 19.9983 0 19.6875 0H4.45312C3.8059 0 3.28125 0.524648 3.28125 1.17188V28.8281C3.28125 29.4754 3.8059 30 4.45312 30H25.5469C26.1941 30 26.7188 29.4754 26.7188 28.8281V7.03125C26.7188 6.72041 26.5953 6.42234 26.3755 6.20256ZM24.375 27.6562H5.625V2.34375H19.2021L24.375 7.51664V27.6562Z" fill="url(#paint0_linear)"/>
<path d="M13.8281 6.44531H7.96875C7.32152 6.44531 6.79688 6.96996 6.79688 7.61719C6.79688 8.26441 7.32152 8.78906 7.96875 8.78906H13.8281C14.4754 8.78906 15 8.26441 15 7.61719C15 6.96996 14.4754 6.44531 13.8281 6.44531Z" fill="url(#paint1_linear)"/>
<path d="M22.0312 14.6484H7.96875C7.32152 14.6484 6.79688 15.1731 6.79688 15.8203C6.79688 16.4675 7.32152 16.9922 7.96875 16.9922H22.0312C22.6785 16.9922 23.2031 16.4675 23.2031 15.8203C23.2031 15.1731 22.6785 14.6484 22.0312 14.6484Z" fill="url(#paint2_linear)"/>
<path d="M22.0312 18.75H7.96875C7.32152 18.75 6.79688 19.2746 6.79688 19.9219C6.79688 20.5691 7.32152 21.0938 7.96875 21.0938H22.0312C22.6785 21.0938 23.2031 20.5691 23.2031 19.9219C23.2031 19.2746 22.6785 18.75 22.0312 18.75Z" fill="url(#paint3_linear)"/>
<path d="M22.0312 22.8516H7.96875C7.32152 22.8516 6.79688 23.3762 6.79688 24.0234C6.79688 24.6707 7.32152 25.1953 7.96875 25.1953H22.0312C22.6785 25.1953 23.2031 24.6707 23.2031 24.0234C23.2031 23.3762 22.6785 22.8516 22.0312 22.8516Z" fill="url(#paint4_linear)"/>
<defs>
<linearGradient id="paint0_linear" x1="3.28125" y1="15" x2="26.7188" y2="15" gradientUnits="userSpaceOnUse">
<stop stop-color="#436DFF"/>
<stop offset="1" stop-color="#3141D7"/>
</linearGradient>
<linearGradient id="paint1_linear" x1="6.79688" y1="7.61719" x2="15" y2="7.61719" gradientUnits="userSpaceOnUse">
<stop stop-color="#436DFF"/>
<stop offset="1" stop-color="#3141D7"/>
</linearGradient>
<linearGradient id="paint2_linear" x1="6.79688" y1="15.8203" x2="23.2031" y2="15.8203" gradientUnits="userSpaceOnUse">
<stop stop-color="#436DFF"/>
<stop offset="1" stop-color="#3141D7"/>
</linearGradient>
<linearGradient id="paint3_linear" x1="6.79688" y1="19.9219" x2="23.2031" y2="19.9219" gradientUnits="userSpaceOnUse">
<stop stop-color="#436DFF"/>
<stop offset="1" stop-color="#3141D7"/>
</linearGradient>
<linearGradient id="paint4_linear" x1="6.79688" y1="24.0234" x2="23.2031" y2="24.0234" gradientUnits="userSpaceOnUse">
<stop stop-color="#436DFF"/>
<stop offset="1" stop-color="#3141D7"/>
</linearGradient>
</defs>
</svg>
