<svg width="30" height="30" viewBox="0 0 30 30" fill="none" xmlns="http://www.w3.org/2000/svg">
<path d="M19.4531 0C17.7653 0 16.1841 0.64834 15 1.78365C13.8159 0.64834 12.2347 0 10.5469 0C6.99293 0 4.10156 2.89137 4.10156 6.44531C4.10156 9.99926 6.99293 12.8906 10.5469 12.8906C12.2348 12.8906 13.8161 12.2422 15.0001 11.107C16.1842 12.2423 17.7654 12.8906 19.4531 12.8906C23.0071 12.8906 25.8984 9.99926 25.8984 6.44531C25.8984 2.89137 23.0071 0 19.4531 0ZM14.6459 6.59162C14.5689 8.77459 12.7827 10.5469 10.5469 10.5469C8.28527 10.5469 6.44531 8.70691 6.44531 6.44531C6.44531 4.18371 8.28527 2.34375 10.5469 2.34375C12.8878 2.34375 14.7272 4.28408 14.6459 6.59162ZM19.4531 10.5469C18.2654 10.5469 17.1602 10.0427 16.3881 9.17209C16.7684 8.35887 16.9617 7.49607 16.9885 6.65361C17.0215 5.62242 16.807 4.61449 16.3881 3.71854C17.1602 2.84789 18.2654 2.34375 19.4531 2.34375C21.7147 2.34375 23.5547 4.18371 23.5547 6.44531C23.5547 8.70691 21.7147 10.5469 19.4531 10.5469Z" fill="url(#paint0_linear)"/>
<path d="M27.2771 17.3016C25.2797 15.0942 22.428 13.8281 19.4531 13.8281C17.9136 13.8281 16.3867 14.1673 15 14.8127C13.6133 14.1673 12.0864 13.8281 10.5469 13.8281C7.57201 13.8281 4.72025 15.0942 2.72256 17.302C0.966855 19.2437 0 21.7556 0 24.375V28.8281C0 29.4754 0.524648 30 1.17188 30C1.63061 30 28.4275 30 28.8281 30C29.4754 30 30 29.4754 30 28.8281V24.375C30 21.7556 29.0331 19.2437 27.2771 17.3016ZM18.75 27.6562H2.34375V24.375C2.34375 22.3376 3.09568 20.3839 4.46074 18.8742C6.01465 17.1568 8.23301 16.1719 10.5469 16.1719C15.0779 16.1719 18.75 19.8442 18.75 24.375V27.6562ZM27.6562 27.6562H21.0938V24.375C21.0938 21.3172 19.7754 18.4236 17.4674 16.4152C18.1144 16.2544 18.7821 16.1719 19.4531 16.1719C21.767 16.1719 23.9854 17.1568 25.539 18.8739C26.9043 20.3839 27.6562 22.3376 27.6562 24.375V27.6562Z" fill="url(#paint1_linear)"/>
<defs>
<linearGradient id="paint0_linear" x1="4.10156" y1="6.44531" x2="25.8984" y2="6.44531" gradientUnits="userSpaceOnUse">
<stop stop-color="#436DFF"/>
<stop offset="1" stop-color="#3141D7"/>
</linearGradient>
<linearGradient id="paint1_linear" x1="0" y1="21.9141" x2="30" y2="21.9141" gradientUnits="userSpaceOnUse">
<stop stop-color="#436DFF"/>
<stop offset="1" stop-color="#3141D7"/>
</linearGradient>
</defs>
</svg>
