<svg width="30" height="30" viewBox="0 0 30 30" fill="none" xmlns="http://www.w3.org/2000/svg">
<path d="M22.1289 6.83461L21.1359 0.976055C21.0403 0.412441 20.5521 0 19.9805 0H10.0195C9.44789 0 8.95969 0.412441 8.86412 0.976113L7.87113 6.83467C5.50688 8.8974 4.16016 11.8478 4.16016 15C4.16016 18.1522 5.50688 21.1026 7.87113 23.1654L8.86412 29.0239C8.95969 29.5876 9.44789 30 10.0195 30H19.9805C20.5521 30 21.0403 29.5876 21.1359 29.0239L22.1289 23.1653C24.4931 21.1026 25.8398 18.1522 25.8398 15C25.8398 11.8478 24.4931 8.8974 22.1289 6.83461ZM20.3122 21.6301C20.0883 21.8098 19.9382 22.0654 19.8902 22.3484L18.9905 27.6562H11.0095L10.1098 22.3484C10.0618 22.0654 9.91172 21.8098 9.68783 21.6301C7.66441 20.0065 6.50391 17.59 6.50391 15C6.50391 12.41 7.66441 9.99346 9.68789 8.36988C9.91178 8.19018 10.0619 7.93465 10.1099 7.65164L11.0095 2.34375H18.9905L19.8902 7.65164C19.9382 7.93465 20.0883 8.19023 20.3122 8.36988C22.3356 9.99346 23.4961 12.41 23.4961 15C23.4961 17.59 22.3356 20.0065 20.3122 21.6301Z" fill="url(#paint0_linear)"/>
<path d="M15 7.96875C11.123 7.96875 7.96875 11.123 7.96875 15C7.96875 18.877 11.123 22.0312 15 22.0312C18.877 22.0312 22.0312 18.877 22.0312 15C22.0312 11.123 18.877 7.96875 15 7.96875ZM15 19.6875C12.4153 19.6875 10.3125 17.5847 10.3125 15C10.3125 12.4153 12.4153 10.3125 15 10.3125C17.5847 10.3125 19.6875 12.4153 19.6875 15C19.6875 17.5847 17.5847 19.6875 15 19.6875Z" fill="url(#paint1_linear)"/>
<path d="M15 11.8359C14.3528 11.8359 13.8281 12.3606 13.8281 13.0078V15C13.8281 15.6472 14.3528 16.1719 15 16.1719C15.6472 16.1719 16.1719 15.6472 16.1719 15V13.0078C16.1719 12.3606 15.6472 11.8359 15 11.8359Z" fill="url(#paint2_linear)"/>
<defs>
<linearGradient id="paint0_linear" x1="4.16016" y1="15" x2="25.8398" y2="15" gradientUnits="userSpaceOnUse">
<stop stop-color="#436DFF"/>
<stop offset="1" stop-color="#3141D7"/>
</linearGradient>
<linearGradient id="paint1_linear" x1="7.96875" y1="15" x2="22.0312" y2="15" gradientUnits="userSpaceOnUse">
<stop stop-color="#436DFF"/>
<stop offset="1" stop-color="#3141D7"/>
</linearGradient>
<linearGradient id="paint2_linear" x1="13.8281" y1="14.0039" x2="16.1719" y2="14.0039" gradientUnits="userSpaceOnUse">
<stop stop-color="#436DFF"/>
<stop offset="1" stop-color="#3141D7"/>
</linearGradient>
</defs>
</svg>
