<svg width="320" height="693" viewBox="0 0 320 693" fill="none" xmlns="http://www.w3.org/2000/svg">
<path d="M0.281738 0C79.3651 18.0261 158.448 66.0959 237.532 84.122C265.021 90.388 292.511 93.0238 320 93.039V330.479H237.532H0.281738V0Z" fill="#4DDFFF"/>
<path d="M0.000183105 692.755C61.8774 667.572 123.755 645.038 185.632 648.372C230.587 650.794 275.541 666.871 320.496 683.245L320.001 568H185.632H0.000183105V692.755Z" fill="#4DDFFF"/>
<path fill-rule="evenodd" clip-rule="evenodd" d="M288.443 44.8311C273.315 47.7242 258.186 50.883 243.058 54.0418C187.586 65.624 132.115 77.2063 76.6435 75.6909C51.0958 74.9929 25.5481 71.5168 0.000488281 67.1818V100H0V597H0.000488281V652.282C23.1278 653.144 52.0642 653.3 81.0005 650.512C119.056 646.845 157.111 638.086 195.167 629.327C202.778 627.575 210.389 625.823 218 624.112C252 616.468 286 609.637 320 610.883V596.245H320V100H319.854V39.2249C309.384 40.9538 298.914 42.8288 288.443 44.8311Z" fill="url(#paint0_linear)"/>
<defs>
<linearGradient id="paint0_linear" x1="0" y1="346.03" x2="320" y2="346.03" gradientUnits="userSpaceOnUse">
<stop stop-color="#436DFF"/>
<stop offset="1" stop-color="#3141D7"/>
</linearGradient>
</defs>
</svg>
