<svg width="1920" height="609" viewBox="0 0 1920 609" fill="none" xmlns="http://www.w3.org/2000/svg">
<path fill-rule="evenodd" clip-rule="evenodd" d="M1920 15.5293L1840 27.5467C1760 39.5641 1600 63.599 1440 81.6252C1280 99.6513 1120 111.669 960 93.6426C800 75.6164 640 27.5467 480 9.52056C320 -8.50559 160 3.51185 80 9.52056L0 15.5293V340H80C160 340 320 340 480 340C640 340 800 340 960 340C1120 340 1280 340 1440 340C1600 340 1760 340 1840 340H1920V15.5293Z" fill="#4DDFFF"/>
<path fill-rule="evenodd" clip-rule="evenodd" d="M1920 493.1L1856 512.011C1792 530.922 1664 568.744 1536 559.288C1408 549.833 1280 493.1 1152 488.372C1024 483.644 896 530.922 768 564.016C640 597.11 512 616.021 384 606.566C256 597.11 128 559.288 64 540.377L0 521.466V408H64C128 408 256 408 384 408C512 408 640 408 768 408C896 408 1024 408 1152 408C1280 408 1408 408 1536 408C1664 408 1792 408 1856 408H1920V493.1Z" fill="#4DDFFF"/>
<path fill-rule="evenodd" clip-rule="evenodd" d="M0 83.2827L64 75.5678C128 67.8528 256 52.4229 384 56.2804C444.952 58.1173 505.905 64.3277 566.857 70.5382C633.905 77.3697 700.952 84.2012 768 85.2114C868.571 86.7269 969.143 75.1446 1069.71 63.5623C1097.14 60.4035 1124.57 57.2447 1152 54.3516C1280 40.8505 1408 33.1355 1536 36.993C1664 40.8505 1792 56.2804 1856 63.9953L1920 71.7103V109V118V497V509V585L1840 570.333L1840 570.333C1760 555.666 1600 526.333 1440 516.067C1280 505.8 1120 514.6 960 524.867C933.333 526.578 906.667 528.33 880 530.082C746.667 538.841 613.333 547.6 480 551.267C320 555.667 160 552.733 80 551.267L0 549.8V509V497V118V109V83.2827Z" fill="url(#paint0_linear)"/>
<defs>
<linearGradient id="paint0_linear" x1="0" y1="310.5" x2="1920" y2="310.5" gradientUnits="userSpaceOnUse">
<stop stop-color="#436DFF"/>
<stop offset="1" stop-color="#3141D7"/>
</linearGradient>
</defs>
</svg>
