<svg width="768" height="781" viewBox="0 0 768 781" fill="none" xmlns="http://www.w3.org/2000/svg">
<path d="M728.458 26.5467L768 14.5293V339H728.458H530.75H293.5H56.25H0V0.245483C18.3884 1.61197 37.3192 4.20548 56.25 8.52054C135.333 26.5467 214.417 74.6164 293.5 92.6426C372.583 110.669 451.667 98.6513 530.75 80.6251C609.833 62.599 688.917 38.5642 728.458 26.5467L728.458 26.5467Z" fill="#4DDFFF"/>
<path d="M724.133 732.011L768 713.1V628H724.133H504.8H241.6H0L-0.0430908 775.635C80.5046 743.526 161.052 704.031 241.6 708.372C329.333 713.1 417.067 769.833 504.8 779.288C592.533 788.744 680.267 750.922 724.133 732.011Z" fill="#4DDFFF"/>
<path fill-rule="evenodd" clip-rule="evenodd" d="M344.4 53.3516C329.271 56.2447 314.143 59.4035 299.014 62.5623C243.543 74.1446 188.071 85.7269 132.6 84.2114C95.6191 83.2012 58.6381 76.3697 21.6572 69.5382C14.4381 68.2046 7.21905 66.871 0 65.5807V108V117V686V689V738.8L32 740.267C64 741.733 128 744.667 192 740.267C245.334 736.6 298.668 727.841 352.002 719.081C362.668 717.329 373.334 715.578 384 713.867C448 703.6 512 694.8 576 705.067C640 715.333 703.999 744.666 735.999 759.333L736 759.333L768 774V689V686V117V108V70.7103L732.7 62.9953C697.4 55.2804 626.8 39.8505 556.2 35.993C485.6 32.1355 415 39.8505 344.4 53.3516Z" fill="url(#paint0_linear)"/>
<defs>
<linearGradient id="paint0_linear" x1="0" y1="404.5" x2="768" y2="404.5" gradientUnits="userSpaceOnUse">
<stop stop-color="#436DFF"/>
<stop offset="1" stop-color="#3141D7"/>
</linearGradient>
</defs>
</svg>
